<?xml version="1.0" encoding="UTF-8"?>
<svg id="Layer_2" xmlns="http://www.w3.org/2000/svg" xmlns:xlink="http://www.w3.org/1999/xlink" viewBox="0 0 272 86">
  <defs>
    <style>
      .cls-1 {
        fill: url(#linear-gradient-5);
      }

      .cls-2 {
        fill: url(#linear-gradient-4);
      }

      .cls-3 {
        fill: url(#linear-gradient-3);
      }

      .cls-4 {
        fill: url(#linear-gradient-2);
      }

      .cls-5 {
        fill: url(#linear-gradient);
      }

      .cls-6 {
        fill: #1d1c1b;
      }

      .cls-7 {
        fill: #cf202c;
      }

      .cls-8 {
        fill: #fff;
      }
    </style>
    <linearGradient id="linear-gradient" x1="39.58" y1="71.22" x2="19.54" y2="87.71" gradientUnits="userSpaceOnUse">
      <stop offset="0" stop-color="#13487e"/>
      <stop offset=".39" stop-color="#225690"/>
    </linearGradient>
    <linearGradient id="linear-gradient-2" x1="52.3" y1="73.58" x2="51.01" y2="74.64" xlink:href="#linear-gradient"/>
    <linearGradient id="linear-gradient-3" x1="63.83" y1="42.74" x2="63.44" y2="43.06" xlink:href="#linear-gradient"/>
    <linearGradient id="linear-gradient-4" x1="-8.35" y1="26.6" x2="37.61" y2="65.88" gradientUnits="userSpaceOnUse">
      <stop offset="0" stop-color="#13487e"/>
      <stop offset=".39" stop-color="#0e62ac"/>
    </linearGradient>
    <linearGradient id="linear-gradient-5" x1="50.1" y1="73.98" x2="47.99" y2="77.87" gradientUnits="userSpaceOnUse">
      <stop offset="0" stop-color="#e84434"/>
      <stop offset=".62" stop-color="#da1f2d"/>
      <stop offset=".85" stop-color="#d61f2d"/>
      <stop offset="1" stop-color="#cf202c"/>
    </linearGradient>
  </defs>
  <g id="Layer_1-2" data-name="Layer_1">
    <path class="cls-5" d="M42.07,78.73c1.74-.07,3.42-.59,4.88-1.51l-11.95,7.87c-.92.6-2,.91-3.09.91s-2.18-.31-3.1-.91l-11.55-7.57c1.34.76,2.85,1.19,4.41,1.25,1.77.07,3.53-.34,5.09-1.18,1.55-.85,2.85-2.11,3.76-3.63.89-1.51,1.37-3.24,1.37-5,.01,1.75.48,3.46,1.38,4.97.9,1.52,2.19,2.76,3.74,3.61,1.55.84,3.3,1.25,5.06,1.19Z"/>
    <path class="cls-4" d="M51.21,74.41c.41-.28.8-.58,1.19-.89-.17.19-.33.33-.49.43l-.7.46Z"/>
    <path class="cls-3" d="M63.71,42.54c0,.18-.01.4-.04.66v-.66h.04Z"/>
    <path class="cls-7" d="M0,18.08c0-.21.01-.42.04-.63-.02.14-.03.28-.02.42v5.54h-.02v-5.33Z"/>
    <path class="cls-7" d="M63.67,18v32.18c.01,4.96-1.23,9.84-3.59,14.2-1.92,3.53-4.52,6.62-7.64,9.1,0,.02-.02.03-.04.04-.39.31-.78.61-1.19.89l-4.18,2.76s-.05.03-.08.05c-1.46.92-3.14,1.44-4.88,1.51-1.76.06-3.51-.35-5.06-1.19-1.55-.85-2.84-2.09-3.74-3.61-.9-1.51-1.37-3.22-1.38-4.97v-34.49h-.01c-.05-1.48-.49-2.93-1.27-4.19-.84-1.36-2.04-2.45-3.47-3.17L3.79,15.5c-.4-.22-.84-.32-1.3-.31-.45.02-.89.15-1.27.4-.39.24-.7.57-.91.98-.14.28-.23.58-.27.88.09-1.05.44-2.06,1.01-2.95.68-1.07,1.65-1.93,2.79-2.47L27.02,1.09c1.51-.71,3.15-1.08,4.82-1.09,1.66,0,3.31.37,4.81,1.08l23.23,10.95c1.14.53,2.09,1.38,2.76,2.44.54.84.87,1.79.98,2.77.04.25.05.51.05.76Z"/>
    <path class="cls-2" d="M31.89,34.81v34.15c0,1.76-.48,3.49-1.37,5-.91,1.52-2.21,2.78-3.76,3.63-1.56.84-3.32,1.25-5.09,1.18-1.56-.06-3.07-.49-4.41-1.25-.05-.02-.09-.04-.13-.08-.15-.07-.3-.17-.44-.26l-3.12-2.02c-4.16-2.7-7.57-6.4-9.94-10.75C1.26,60.05.02,55.17.02,50.21V17.87c-.01-.14,0-.28.02-.42.04-.3.13-.6.27-.88.21-.41.52-.74.91-.98.38-.25.82-.38,1.27-.4.46-.01.9.09,1.3.31l23.35,11.61c1.43.72,2.63,1.81,3.47,3.17.78,1.26,1.22,2.71,1.27,4.19.01.11.01.23.01.34Z"/>
    <path class="cls-7" d="M63.67,17.84v.16c0-.25-.01-.51-.05-.76.04.2.06.4.05.6Z"/>
    <path class="cls-1" d="M51.21,74.41c-.35.25-.7.5-1.06.73l-3.12,2.03,4.18-2.76Z"/>
    <path class="cls-8" d="M47.43,33.42l-7.89,4.87v25.06l7.78-4.53c3.08-1.98,5.62-4.69,7.41-7.89,1.79-3.2,2.76-6.79,2.84-10.45.4-12.75-10.13-7.06-10.13-7.06ZM44.71,54.17v-13.21s8-5.77,8.01,2.24c0,8.01-8.01,10.96-8.01,10.96Z"/>
    <path class="cls-8" d="M6.37,31.63l18.68,9.62v6.52l-6.25-3.04.08,19.18-6.55-3.69-.08-18.33-5.87-3.08v-7.17Z"/>
    <path class="cls-6" d="M83.34,24.03h24.75v4.8h-9.66v18.97h-5.37v-18.97h-9.71v-4.8Z"/>
    <path class="cls-6" d="M117.15,24.03h8.72l10.11,23.8h-5.68l-1.55-3.61h-14.66l-1.55,3.61h-5.76l10.36-23.8ZM120.49,28.83l-4.42,10.72h10.58l-4.3-10.72h-1.86Z"/>
    <path class="cls-6" d="M135.55,24.03h6.15l7.61,12.69h.34l7.35-12.69h6.15l-11.15,17.85v5.95h-5.28v-5.95l-11.16-17.85Z"/>
    <path class="cls-6" d="M189.76,29.84l-4.17,2.41c-.87-1.29-2.06-2.34-3.46-3.04-1.39-.7-2.94-1.03-4.5-.96-1.04-.05-2.08.1-3.07.46s-1.88.9-2.65,1.61c-1.39,1.53-2.15,3.52-2.14,5.59,0,2.06.79,4.05,2.18,5.57.76.72,1.65,1.27,2.62,1.64.98.37,2.01.53,3.05.49,1.56.07,3.11-.27,4.5-.97,1.39-.7,2.58-1.75,3.46-3.04l4.17,2.41c-2.48,4.25-6.49,6.37-12.04,6.37-3.5.13-6.91-1.08-9.54-3.4-2.48-2.27-3.72-5.29-3.72-9.08s1.25-6.81,3.76-9.07c2.62-2.29,6.02-3.49,9.5-3.36,5.53,0,9.55,2.12,12.04,6.37Z"/>
    <path class="cls-6" d="M193.54,24.03h5.37v9.08h13.41v-9.08h5.37v23.8h-5.37v-9.91h-13.41v9.9h-5.37v-23.79Z"/>
    <path class="cls-6" d="M222,24.03h21.55v4.86h-16.18v4.4h14.57v4.86h-14.57v4.74h16.81v4.95h-22.18v-23.81Z"/>
    <path class="cls-6" d="M248.18,24.03h14.01c2.59-.09,5.12.85,7.03,2.6.91.85,1.63,1.89,2.11,3.05.48,1.15.71,2.4.67,3.65.08,1.62-.31,3.24-1.12,4.65-.82,1.41-2.03,2.54-3.48,3.27l3.66,6.54h-5.85l-2.76-5.26h-8.92v5.3h-5.37l.03-23.79ZM253.55,28.94v8.69h8.43c1.22.06,2.43-.34,3.37-1.12.43-.4.76-.89.98-1.43.22-.54.31-1.13.28-1.71.03-.6-.07-1.19-.29-1.74-.22-.55-.55-1.06-.97-1.48-.92-.83-2.13-1.26-3.37-1.2h-8.43Z"/>
    <path class="cls-6" d="M84.82,58.04h3.4c.96-.03,1.89.31,2.62.94.34.32.61.71.79,1.14.18.43.28.89.28,1.36s-.1.93-.28,1.36-.45.82-.79,1.14c-.72.63-1.64.96-2.59.94h-3.42v-6.88ZM85.8,58.93v5.09h2.36c.74.04,1.46-.21,2.01-.69.49-.49.77-1.16.77-1.86s-.28-1.36-.77-1.86c-.56-.49-1.28-.74-2.01-.7h-2.36Z"/>
    <path class="cls-6" d="M102.76,58.04h6.06v.89h-5.09v2.02h4.57v.88h-4.57v2.19h5.28v.9h-6.25v-6.88Z"/>
    <path class="cls-6" d="M119.68,58.04h1.07l2.57,5.95h.65l2.59-5.95h1.08l-3.06,6.88h-1.86l-3.05-6.88Z"/>
    <path class="cls-6" d="M138.41,58.04h6.06v.89h-5.09v2.02h4.57v.88h-4.57v2.19h5.28v.9h-6.26v-6.88Z"/>
    <path class="cls-6" d="M155.66,58.04h.97v5.95h5.14v.9h-6.12v-6.85Z"/>
    <path class="cls-6" d="M178.66,58.88c.34.34.61.75.8,1.19.18.45.28.93.28,1.41s-.1.96-.28,1.41c-.19.45-.46.85-.8,1.19-.77.64-1.74,1-2.74,1s-1.97-.35-2.74-1c-.34-.34-.61-.75-.8-1.19-.19-.45-.28-.93-.28-1.41s.1-.96.28-1.41c.18-.45.46-.85.8-1.19.77-.65,1.74-1,2.74-1s1.97.36,2.74,1h0ZM173.06,61.49c-.01.37.05.75.19,1.09.14.35.36.66.63.92.57.47,1.3.73,2.04.73s1.47-.26,2.04-.73c.52-.53.81-1.25.81-2s-.29-1.46-.81-2c-.57-.48-1.29-.74-2.04-.74s-1.47.26-2.04.74c-.27.25-.48.56-.62.91-.14.34-.21.71-.2,1.08h0Z"/>
    <path class="cls-6" d="M190.64,58.04h4.01c.73-.02,1.44.25,1.98.74.25.25.45.54.59.86.14.32.21.67.21,1.02s-.07.7-.21,1.02c-.14.32-.34.62-.59.86-.54.49-1.25.76-1.98.74h-3.03v1.67h-.97v-6.92ZM191.62,58.94v3.41h3.02c.48.03.95-.14,1.32-.45.17-.16.3-.35.39-.57.09-.22.12-.45.11-.68.01-.23-.03-.46-.11-.68-.09-.22-.22-.41-.38-.57-.36-.32-.83-.48-1.32-.46h-3.02Z"/>
    <path class="cls-6" d="M208.24,58.04h1.61l2.97,5.81h.06l2.88-5.81h1.59v6.88h-1v-5.79h-.19l-2.88,5.79h-.96l-2.97-5.79h-.19v5.79h-.96l.02-6.88Z"/>
    <path class="cls-6" d="M228.45,58.04h6.06v.89h-5.1v2.02h4.58v.88h-4.58v2.19h5.28v.9h-6.25v-6.88Z"/>
    <path class="cls-6" d="M245.7,58.04h1.07l4.99,5.6v-5.6h.96v6.88h-1.09l-4.99-5.6v5.61h-.95v-6.89Z"/>
    <path class="cls-6" d="M263.49,58.04h7.08v.9h-3.05v5.95h-.98v-5.95h-3.05v-.9Z"/>
  </g>
</svg>