<?xml version="1.0" encoding="UTF-8"?><svg id="Layer_2" xmlns="http://www.w3.org/2000/svg" viewBox="0 0 316.1716 294.9515"><g id="Components"><g id="_87feb4c8-6720-4dac-b8ec-348650faa606_5"><path d="M18.9277,263.9085h-3.0312l-11.002-24.8945c-.4355-1.0254-.8623-1.8418-1.2812-2.4473-.4199-.6074-.9023-1.0508-1.4453-1.3301-.5449-.2793-1.2676-.4199-2.168-.4199v-1.7715h14.4053v1.7715c-.5283,0-1.0342.041-1.5146.1172-.4824.0781-.8789.2422-1.1895.4902-.3105.248-.4668.6523-.4668,1.2109,0,.7461.2178,1.6328.6533,2.6582l5.4082,12.5879,1.7715,4.6621h.3262l1.7256-4.6621,5.3145-13.3809c.0928-.2168.1855-.5117.2793-.8848s.1406-.7617.1406-1.166c0-.6211-.2422-1.0488-.7227-1.2832-.4824-.2324-1.2363-.3496-2.2617-.3496v-1.7715h10.3027v1.7715c-.6836,0-1.2578.0781-1.7246.2344s-.8936.459-1.2822.9082c-.3887.4512-.7998,1.127-1.2354,2.0293-.4355.9004-.9785,2.1133-1.6309,3.6348l-9.3711,22.2852Z" style="fill:#fff;"/><path d="M72.1866,260.8588c-.6597-.7-1.3198-1.8-1.9795-3.29l-10.4404-24.76h-3.7798l-10.02,24.01c-.5898,1.4-1.1099,2.47-1.5601,3.2001-.4497.73-.9302,1.23-1.4497,1.49-.5103.26-1.1904.4-2.0303.4v1.77h10.3501v-1.77c-1.1401,0-1.96-.1101-2.4399-.3101-.4902-.2-.73-.6599-.73-1.37,0-.41.0698-.83.21-1.2899.1401-.4501.2798-.8701.3999-1.28l1.6401-3.96h11.1699l1.3198,3.3099c.2803.65.4902,1.2799.6499,1.89.1499.6.23,1.08.23,1.4199,0,.5-.1499.8601-.46,1.0701-.3096.22-.6997.36-1.1499.4199-.4497.0601-.8701.1001-1.2798.1001v1.77h14.04v-1.77c-1.1201,0-2.02-.3501-2.6904-1.05ZM51.1368,251.4589l4.8999-12.1201h.1899l4.4902,12.1201h-9.5801Z" style="fill:#fff;"/><path d="M104.1484,263.6761h-14.8711v-1.7715c1.1797,0,2.0742-.0938,2.6797-.2813.6064-.1855,1.0176-.5898,1.2363-1.2109.2168-.6211.3262-1.5859.3262-2.8906v-19.1152c0-.9316-.0938-1.6543-.2793-2.168-.1875-.5117-.584-.877-1.1895-1.0957-.6055-.2168-1.5312-.3262-2.7734-.3262v-1.7715h13.7988c2.2383,0,4.2812.2344,6.1309.6992,1.8496.4668,3.3174,1.2676,4.4062,2.4023,1.0869,1.1348,1.6309,2.6953,1.6309,4.6855,0,1.709-.3652,3.0996-1.0957,4.1719s-1.6621,1.9043-2.7969,2.4941c-1.1348.5898-2.3535,1.041-3.6602,1.3516v.2344c.498.3105,1.0498.8223,1.6563,1.5371.6055.7148,1.4053,1.7793,2.4004,3.1934.9941,1.416,2.3311,3.3184,4.0098,5.7109.7461,1.0254,1.4834,1.6797,2.2139,1.959.7295.2793,1.624.4199,2.6807.4199v1.7715h-9.5098c-1.1191-1.8965-2.0518-3.4648-2.7979-4.709-.7461-1.2422-1.3838-2.2773-1.9111-3.0996-.5293-.8242-1.002-1.5703-1.4219-2.2383s-.8633-1.3594-1.3291-2.0742c-.4355-.7148-.8545-1.1582-1.2588-1.3301-.4043-.1699-1.0098-.2559-1.8184-.2559h-1.0723v7.5996c0,1.2422.1094,2.1836.3262,2.8203.2168.6367.6533,1.0488,1.3057,1.2344.6533.1875,1.6475.2813,2.9834.2813v1.7715ZM99.5332,247.8714l1.7715.0469c1.6162-.0938,2.9912-.3574,4.127-.793,1.1328-.4355,2.0039-1.1348,2.6094-2.0977.6074-.9629.9102-2.2852.9102-3.9629,0-1.8027-.5137-3.2402-1.5391-4.3125-1.0254-1.0723-2.6885-1.6094-4.9883-1.6094-.498,0-.9863.0098-1.4688.0234-.4824.0176-.9551.0547-1.4219.1172v12.5879Z" style="fill:#fff;"/><path d="M153.334,263.6761h-15.3389v-1.7715c1.3682,0,2.3779-.0859,3.0303-.2578.6523-.1699,1.0801-.582,1.2822-1.2344s.3037-1.6621.3037-3.0312v-5.8262l-6.1543-10.2578c-.9023-1.5215-1.6631-2.7109-2.2852-3.5664-.6211-.8535-1.1816-1.4922-1.6777-1.9102-.498-.4199-.9639-.6914-1.3984-.8164-.4355-.125-.9326-.1875-1.4922-.1875v-1.7715h13.7529v1.7715c-1.2432,0-2.0439.0938-2.4014.2813-.3574.1855-.5352.4492-.5352.791,0,.5605.2324,1.2441.6992,2.0527l4.0098,6.9453,1.9102,3.7305h.2803l5.9209-10.957c.124-.2168.2324-.4805.3262-.791s.1406-.5898.1406-.8398c0-.373-.1641-.668-.4902-.8867-.3262-.2168-1.0801-.3262-2.2617-.3262v-1.7715h10.3965v1.7715c-.8701.0625-1.6074.1953-2.2139.3965-.6064.2031-1.1729.5918-1.7021,1.166-.5283.5762-1.165,1.4688-1.9111,2.6816l-6.9463,12.4473v5.873c0,1.3691.1318,2.3711.3965,3.0078.2637.6367.7461,1.0488,1.4453,1.2344.6992.1875,1.6699.2813,2.9141.2813v1.7715Z" style="fill:#fff;"/><path d="M200.2334,263.6761h-25.2686v-1.7715c1.2744,0,2.2227-.1094,2.8437-.3262.6211-.2188,1.0254-.6367,1.2129-1.2598.1855-.6211.2793-1.5391.2793-2.75v-18.2285c0-1.1816-.0938-2.0977-.2793-2.752-.1875-.6523-.583-1.1094-1.1895-1.375-.6055-.2637-1.5469-.3965-2.8203-.3965v-1.7715h14.8252v1.7715c-1.3057,0-2.2842.1328-2.9365.3965-.6523.2656-1.0889.7227-1.3057,1.375-.2178.6543-.3262,1.5859-.3262,2.7988v19.1133c0,1.1191.2402,1.8418.7217,2.168.4824.3262,1.4062.4902,2.7744.4902h2.6104c1.3994,0,2.541-.1094,3.4277-.3262.8848-.2168,1.6074-.5996,2.168-1.1426.5586-.543,1.0254-1.2656,1.3984-2.168.373-.9004.7607-2.0352,1.165-3.4043h2.0518l-1.3525,9.5586Z" style="fill:#fff;"/><path d="M230.957,263.6761h-14.6855v-1.7715c1.3672,0,2.3613-.1172,2.9824-.3496.6221-.2344,1.0186-.6836,1.1895-1.3535.1699-.668.2559-1.6699.2559-3.0059v-17.5762c0-1.2422-.0859-2.207-.2559-2.8906-.1709-.6836-.5674-1.1719-1.1895-1.4688-.6211-.2949-1.6152-.4434-2.9824-.4434v-1.7715h14.7783v1.7715c-1.3994,0-2.417.1484-3.0537.4434-.6377.2969-1.0254.793-1.166,1.4922-.1396.6992-.209,1.6543-.209,2.8672v17.5762c0,1.3047.085,2.3008.2559,2.9844.1699.6836.5596,1.1406,1.166,1.375.6055.2324,1.5762.3496,2.9141.3496v1.7715Z" style="fill:#fff;"/><path d="M261.7725,263.6761h-15.1982v-1.7715c1.2119,0,2.1367-.1016,2.7734-.3027.6367-.2031,1.0723-.5918,1.3057-1.166s.3496-1.4375.3496-2.5879v-19.1152c0-1.0859-.124-1.9102-.373-2.4707-.249-.5586-.6914-.9316-1.3281-1.1191-.6377-.1855-1.5469-.2793-2.7275-.2793v-1.8184h25.6875l.3262,8.252h-2.0977c-.1865-1.1191-.3965-2.043-.6289-2.7734-.2334-.7305-.583-1.3047-1.0488-1.7246-.4668-.4199-1.1426-.7148-2.0283-.8867-.8857-.1699-2.0908-.2559-3.6133-.2559h-6.2471v11.2832h4.2891c1.3359,0,2.3848-.1094,3.1465-.3281.7617-.2168,1.3057-.6445,1.6318-1.2812.3271-.6367.4902-1.5762.4902-2.8203h1.958v10.8633h-1.958c0-1.2754-.1631-2.1992-.4902-2.7754-.3262-.5742-.8701-.9551-1.6318-1.1426-.7617-.1855-1.8105-.2793-3.1465-.2793h-4.2891v8.998c0,1.0566.1475,1.8496.4434,2.377.2949.5293.7998.8867,1.5146,1.0723.7148.1875,1.6787.2813,2.8906.2813v1.7715Z" style="fill:#fff;"/><path d="M313.1943,263.6761h-26.0605v-1.7715c1.1494,0,2.043-.0859,2.6807-.2578.6367-.1699,1.0879-.5352,1.3516-1.0957.2637-.5586.3965-1.4277.3965-2.6094v-18.8359c0-1.1797-.1016-2.0742-.3027-2.6797-.2031-.6055-.6221-1.0176-1.2588-1.2363-.6377-.2168-1.5928-.3262-2.8672-.3262v-1.8184h25.5947l.2793,8.1602h-2.0508c-.2178-1.4609-.5361-2.5957-.9561-3.4043s-1.0879-1.3672-2.0049-1.6777c-.917-.3105-2.2773-.4668-4.0791-.4668h-6.4336v11.1426h4.6621c1.4922,0,2.6025-.0938,3.333-.2793.7305-.1875,1.2129-.584,1.4453-1.1895.2334-.6055.3496-1.5156.3496-2.7266h1.9121v10.7695h-1.9121c0-1.3066-.1162-2.2617-.3496-2.8672-.2324-.6074-.7148-.9961-1.4453-1.166-.7305-.1699-1.8408-.2559-3.333-.2559h-4.6621v12.0273h5.6875c1.6475,0,2.9844-.0859,4.0098-.2559,1.0254-.1719,1.8486-.4902,2.4707-.957.6211-.4648,1.1338-1.1191,1.5381-1.957.4043-.8398.8086-1.9277,1.2129-3.2637h1.958l-1.166,8.998Z" style="fill:#fff;"/><path d="M41.46,294.6487v-1.167l8.2139-9.7705h-7.5439v-1.2314h9.3154v1.1885l-8.1699,9.748h8.127v1.2324h-9.9424ZM46.2363,281.5501l-2.3555-2.334v-.1729h1.3398l1.2754,1.5557h.0859l1.3184-1.5557h1.3193v.1729l-2.3779,2.334h-.6055Z" style="fill:#fff;"/><polygon points="59.7467 283.6888 59.7467 293.4388 61.4068 293.4388 61.4068 294.6488 56.6968 294.6488 56.6968 293.4388 58.3668 293.4388 58.3668 283.6888 56.6968 283.6888 56.6968 282.4788 61.4068 282.4788 61.4068 283.6888 59.7467 283.6888" style="fill:#fff;"/><path d="M75.5029,282.4798h1.5127l-4.3008,12.1689h-2.335l-4.2803-12.1689h1.5137l3.9336,11.5205,3.9561-11.5205Z" style="fill:#fff;"/><path d="M86.6992,294.9515c-1.9316,0-3.4014-.5732-4.4102-1.7188s-1.5127-2.6904-1.5127-4.6357c0-1.2822.2197-2.3955.6592-3.3398.4395-.9434,1.0947-1.6787,1.9668-2.2051.8711-.5254,1.9707-.7881,3.2969-.7881,1.9297,0,3.3926.5723,4.3867,1.7178s1.4922,2.6846,1.4922,4.6152c0,1.2529-.2207,2.3594-.6602,3.3174-.4395.959-1.0947,1.7041-1.9668,2.2373-.8711.5332-1.9551.7998-3.252.7998ZM86.6768,293.6116c1.0088,0,1.8486-.209,2.5186-.627.6699-.418,1.1738-1.0049,1.5127-1.7617s.5078-1.6318.5078-2.626-.1621-1.8701-.4863-2.627c-.3242-.7559-.8252-1.3467-1.502-1.7725-.6777-.4248-1.5273-.6367-2.5508-.6367-1.4834,0-2.6123.4463-3.3818,1.3398-.7715.8936-1.1572,2.126-1.1572,3.6963,0,.9795.165,1.8477.4971,2.6045.332.7559.832,1.3477,1.502,1.7725.6699.4248,1.5176.6377,2.54.6377Z" style="fill:#fff;"/><polygon points="105.3966 282.4788 105.3966 283.6888 101.5069 283.6888 101.5069 294.6488 100.1168 294.6488 100.1168 283.6888 96.2071 283.6888 96.2071 282.4788 105.3966 282.4788" style="fill:#fff;"/><path d="M126.2314,282.4798h1.5127l-4.3008,12.1689h-2.335l-4.2803-12.1689h1.5137l3.9336,11.5205,3.9561-11.5205Z" style="fill:#fff;"/><path d="M140.54,294.6487v-12.1689h4.0205c1.0371,0,1.9121.1045,2.626.3135.7129.209,1.2607.5654,1.6426,1.0693.3818.5049.5732,1.2041.5732,2.0967,0,.5771-.1055,1.1064-.3145,1.5889-.209.4834-.5254.8682-.9512,1.1563-.4238.2891-.9541.4326-1.5879.4326.5186,0,.9219.0977,1.2109.292.2871.1943.4961.4502.626.7676.1299.3164.2158.6553.2598,1.0156.043.3604.0713.7129.0869,1.0586.0137.3457.0459.6484.0967.9082.0498.2598.1621.4395.335.54.1729.1016.4316.0869.7783-.043v.9082c-.1299.1152-.3281.1973-.5947.248s-.5439.0322-.832-.0537c-.2891-.0869-.5293-.2812-.7246-.584-.1934-.3027-.291-.749-.291-1.3398,0-.7207-.0293-1.3076-.0869-1.7617-.0576-.4541-.1836-.8027-.3779-1.0479-.1953-.2451-.4941-.418-.8965-.5195-.4043-.1006-.9453-.1514-1.6211-.1514-.6777,0-1.5352.0078-2.5723.0225v5.252h-1.4053ZM141.9453,288.3372h2.8311c.7637,0,1.3936-.0645,1.8916-.1943.4961-.1299.8672-.3564,1.1133-.6807.2441-.3242.3672-.7959.3672-1.416,0-.7354-.1514-1.2676-.4541-1.5996-.3027-.3311-.7393-.5439-1.3076-.6377-.5693-.0938-1.2715-.1406-2.1074-.1406h-2.334v4.6689Z" style="fill:#fff;"/><polygon points="163.127 282.4788 158.9571 290.1888 158.9571 294.6488 157.5469 294.6488 157.5469 290.1688 153.4268 282.4788 154.9766 282.4788 158.2867 288.9188 161.587 282.4788 163.127 282.4788" style="fill:#fff;"/><polygon points="176.2667 282.4788 176.2667 283.6888 172.377 283.6888 172.377 294.6488 170.9967 294.6488 170.9967 283.6888 167.087 283.6888 167.087 282.4788 176.2667 282.4788" style="fill:#fff;"/><path d="M180.8281,294.6487v-12.1689h2.3994l3.9561,11.542h.043l3.8906-11.542h2.3984v12.1689h-1.4043l.0645-11.4561h-.043l-3.9336,11.4561h-2.0537l-3.9346-11.4561h-.043l.0654,11.4561h-1.4053Z" style="fill:#fff;"/><path d="M203.998,294.9515c-1.6279,0-2.8779-.4795-3.75-1.4375-.8711-.958-1.3066-2.3086-1.3066-4.0527v-6.9814h1.4258v6.9814c0,.7207.0938,1.3437.2813,1.8701.1875.5254.4434.9609.7676,1.3076.3242.3457.7051.5977,1.1455.7559.4385.1592.9189.2383,1.4365.2383.75,0,1.3945-.1406,1.9355-.4219.54-.2812.9609-.7314,1.2637-1.3506.3027-.6191.4541-1.4189.4541-2.3994v-6.9814h1.4268v6.9814c0,1.7725-.4287,3.1309-1.2861,4.0742-.8574.9443-2.1221,1.416-3.7939,1.416Z" style="fill:#fff;"/><path d="M230.8223,282.4798h1.5137l-4.3018,12.1689h-2.335l-4.2793-12.1689h1.5137l3.9336,11.5205,3.9551-11.5205Z" style="fill:#fff;"/><path d="M241.3267,282.4788h-2.29l-4.2798,12.17h1.4697l1.3101-3.8h5.3501l1.3101,3.8h1.48l-4.3501-12.17ZM237.9468,289.6788l2.2798-6.5901,2.2603,6.5901h-4.54Z" style="fill:#fff;"/><path d="M250.4043,294.6487v-12.1689h4.0205c1.0371,0,1.9131.1045,2.626.3135.7139.209,1.2607.5654,1.6426,1.0693.3818.5049.5732,1.2041.5732,2.0967,0,.5771-.1045,1.1064-.3135,1.5889-.209.4834-.5264.8682-.9512,1.1563-.4248.2891-.9551.4326-1.5889.4326.5195,0,.9219.0977,1.2109.292.2881.1943.4971.4502.627.7676.1299.3164.2158.6553.2588,1.0156.0439.3604.0723.7129.0869,1.0586.0137.3457.0469.6484.0967.9082.0508.2598.1621.4395.3359.54.1729.1016.4316.0869.7773-.043v.9082c-.1289.1152-.3271.1973-.5938.248-.2676.0508-.5439.0322-.832-.0537-.2891-.0869-.5303-.2812-.7246-.584s-.292-.749-.292-1.3398c0-.7207-.0293-1.3076-.0859-1.7617-.0576-.4541-.1836-.8027-.3789-1.0479-.1943-.2451-.4932-.418-.8965-.5195-.4033-.1006-.9443-.1514-1.6211-.1514-.6777,0-1.5352.0078-2.5723.0225v5.252h-1.4053ZM251.8096,288.3372h2.8311c.7637,0,1.3945-.0645,1.8916-.1943s.8682-.3564,1.1133-.6807.3672-.7959.3672-1.416c0-.7354-.1514-1.2676-.4541-1.5996-.3018-.3311-.7383-.5439-1.3076-.6377-.5693-.0938-1.2715-.1406-2.1074-.1406h-2.334v4.6689Z" style="fill:#fff;"/><path d="M269.75,294.9515c-1.6279,0-2.8779-.4795-3.75-1.4375-.8721-.958-1.3076-2.3086-1.3076-4.0527v-6.9814h1.4268v6.9814c0,.7207.0938,1.3437.2803,1.8701.1875.5254.4434.9609.7676,1.3076.3242.3457.7061.5977,1.1455.7559.4395.1592.9189.2383,1.4375.2383.749,0,1.3945-.1406,1.9346-.4219s.9619-.7314,1.2646-1.3506c.3027-.6191.4541-1.4189.4541-2.3994v-6.9814h1.4268v6.9814c0,1.7725-.4297,3.1309-1.2861,4.0742-.8584.9443-2.1221,1.416-3.7939,1.416ZM269.7715,281.1829c-.6338,0-1.1201-.1768-1.459-.5293-.3389-.3535-.5078-.8252-.5078-1.416,0-.6055.166-1.084.4971-1.4375.3311-.3525.8145-.5293,1.4482-.5293.6484,0,1.1455.1768,1.4912.5293.3457.3535.5195.832.5195,1.4375,0,.5615-.1738,1.0264-.5195,1.3936-.3457.3682-.8359.5518-1.4697.5518ZM269.75,280.3186c.3604,0,.6377-.1084.832-.3242.1943-.2168.292-.4756.292-.7783,0-.3174-.0977-.5869-.292-.8105s-.4717-.335-.832-.335-.6377.1113-.832.335-.292.4932-.292.8105c0,.3164.1045.5801.3135.7891s.4795.3135.8105.3135Z" style="fill:#fff;"/><path d="M128.1921,21.8211v101.1314h-2.972V19.1385c.9414.9427,1.9569,1.8122,2.972,2.6825h0ZM151.8977,33.131v89.8215h-2.8997V32.4778c.9427.2176,1.9565.4347,2.8997.6532h0ZM140.0802,29.4321v93.5204h-2.972V27.9836c.9432.5071,1.9583,1.0142,2.972,1.4485h0ZM101.5136,38.5684c.9427.5067,1.9578,1.0138,2.8996,1.4485v82.9356h-2.8996V38.5684ZM116.3027,6.8868v116.0657h-2.972V0c.8704,2.3912,1.8117,4.7114,2.972,6.8868h0Z" style="fill:#fff; fill-rule:evenodd;"/><path d="M104.4133,103.3779v76.4112h-4.6394v-74.8885c1.5222-.5071,3.1168-1.0142,4.6394-1.5226h0ZM80.7077,109.6132v70.1758h-4.7127v-69.3792c1.5946-.2895,3.1181-.5071,4.7127-.7966h0ZM92.5971,106.9307v72.8584h-4.7127v-71.698c1.5946-.3637,3.1168-.798,4.7127-1.1603h0ZM151.8977,78.44v101.349h-4.6394v-97.8685c1.5946-1.0888,3.1168-2.2478,4.6394-3.4804h0ZM140.0802,86.7047v93.0844h-4.7114v-90.2575c1.5946-.8704,3.1181-1.8841,4.7114-2.8268h0ZM128.1921,93.4467v86.3424h-4.7127v-84.0222c1.5959-.7256,3.1168-1.5235,4.7127-2.3202h0ZM116.3027,98.956v80.833h-4.7118v-78.9471c1.5946-.6532,3.1896-1.234,4.7118-1.8859h0Z" style="fill:#fff; fill-rule:evenodd;"/><path d="M193.0034,21.8211v101.1314h2.972V19.1385c-.9418.9427-1.9583,1.8122-2.972,2.6825h0ZM169.2965,33.131v89.8215h2.8997V32.4778c-.9414.2176-1.9578.4347-2.8997.6532h0ZM181.1126,29.4321v93.5204h2.972V27.9836c-.9418.5071-1.9556,1.0142-2.972,1.4485h0ZM219.6819,38.5684c-.9441.5067-1.9578,1.0138-2.8996,1.4485v82.9356h2.8996V38.5684ZM204.8915,6.8868v116.0657h2.8997V0c-.7966,2.3912-1.7385,4.7114-2.8997,6.8868h0Z" style="fill:#fff; fill-rule:evenodd;"/><path d="M216.7822,103.3779v76.4112h4.6381v-74.8885c-1.5213-.5071-3.1172-1.0142-4.6381-1.5226h0ZM240.4865,109.6132v70.1758h4.7127v-69.3792c-1.5932-.2895-3.1168-.5071-4.7127-.7966h0ZM228.598,106.9307v72.8584h4.7131v-71.698c-1.5959-.3637-3.1172-.798-4.7131-1.1603h0ZM169.2965,78.44v101.349h4.6408v-97.8685c-1.5959-1.0888-3.1172-2.2478-4.6408-3.4804h0ZM181.1126,86.7047v93.0844h4.7127v-90.2575c-1.5932-.8704-3.1168-1.8841-4.7127-2.8268h0ZM193.0034,93.4467v86.3424h4.7127v-84.0222c-1.5959-.7256-3.1919-1.5235-4.7127-2.3202h0ZM204.8915,98.956v80.833h4.7127v-78.9471c-1.5959-.6532-3.1891-1.234-4.7127-1.8859h0Z" style="fill:#fff; fill-rule:evenodd;"/><path d="M175.6752,171.2349v22.98h-6.3788v-21.0968c2.103-.5795,4.2784-1.2313,6.3788-1.8832h0ZM.5279,194.2149h80.1798v-55.7491c-2.1754-1.5946-4.2771-3.2615-6.3801-4.9285v54.516L.5279,194.2149ZM316.1716,194.2149l-69.3041-6.1616v-54.516c-2.1026,1.667-4.2056,3.3339-6.381,4.9285v55.7491h75.6851ZM145.5176,171.2349v22.98h6.3801v-21.0968c-2.1017-.5795-4.2771-1.2313-6.3801-1.8832h0ZM160.5975,5.0013l3.1896,189.2135h-6.3787v-3.6963l3.1891-185.5173ZM86.2174,142.4533v51.7615h6.3797v-47.4844c-2.1754-1.4498-4.3508-2.8273-6.3797-4.2771h0ZM98.0345,150.0657v44.1492h6.3788v-40.4529c-2.1017-1.2309-4.2771-2.4649-6.3788-3.6963h0ZM109.9226,156.6616v37.5533h6.3801v-34.4338c-2.1741-1.0164-4.2771-2.0302-6.3801-3.1195h0ZM121.812,162.3161v31.8988h6.3801v-29.2163c-2.1754-.869-4.2784-1.8108-6.3801-2.6825h0ZM133.7019,167.1016v27.1132h6.3783v-24.7931c-2.1741-.7966-4.2757-1.5235-6.3783-2.3201h0ZM234.9767,142.4533v51.7615h-6.3788v-47.4844c2.1754-1.4498,4.3508-2.8273,6.3788-4.2771h0ZM223.161,150.0657v44.1492h-6.3788v-40.4529c2.1003-1.2309,4.2757-2.4649,6.3788-3.6963h0ZM211.2729,156.6616v37.5533h-6.3815v-34.4338c2.1754-1.0164,4.2784-2.0302,6.3815-3.1195h0ZM199.3821,162.3161v31.8988h-6.3788v-29.2163c2.1754-.869,4.2757-1.8108,6.3788-2.6825h0ZM187.4936,167.1016v27.1132h-6.381v-24.7931c2.1754-.7966,4.278-1.5235,6.381-2.3201h0Z" style="fill:#fff; fill-rule:evenodd;"/></g></g></svg>